# Alias Wavefront OBJ File Exported from SketchUp
# with OBJexporter (c) 2010/2011 TIG
# Units = meters

mtllib marssurvive_sp.mtl

g marssurvive_sp_Main-jean_blue
usemtl jean_blue
v -1.908208 11.107707 -7.330356
v 2.230405 1.208057 -7.330356
v -1.908208 1.208057 -7.330356
v 2.230405 11.107707 -7.330356
v 2.230405 1.208057 -7.330356
v 2.230405 11.107707 -3.450506
v 2.230405 1.208057 -3.450506
v 2.230405 11.107707 -7.330356
v 2.230405 1.208057 -7.330356
v -1.908208 1.208057 -3.450506
v -1.908208 1.208057 -7.330356
v 2.230405 1.208057 -3.450506
v -1.908208 11.107707 -7.330356
v -1.908208 1.208057 -3.450506
v -1.908208 11.107707 -3.450506
v -1.908208 1.208057 -7.330356
v 2.230405 11.107707 -3.450506
v -1.908208 11.107707 -7.330356
v -1.908208 11.107707 -3.450506
v 2.230405 11.107707 -7.330356
vn 0.000000 0.000000 -1.000000
vn 0.000000 0.000000 -1.000000
vn 0.000000 0.000000 -1.000000
vn 0.000000 0.000000 -1.000000
vn 1.000000 0.000000 -0.000000
vn 1.000000 0.000000 -0.000000
vn 1.000000 0.000000 -0.000000
vn 1.000000 0.000000 -0.000000
vn -0.000000 -1.000000 0.000000
vn -0.000000 -1.000000 0.000000
vn -0.000000 -1.000000 0.000000
vn -0.000000 -1.000000 0.000000
vn -1.000000 0.000000 -0.000000
vn -1.000000 0.000000 -0.000000
vn -1.000000 0.000000 -0.000000
vn -1.000000 0.000000 -0.000000
vn -0.000000 1.000000 -0.000000
vn -0.000000 1.000000 -0.000000
vn -0.000000 1.000000 -0.000000
vn -0.000000 1.000000 -0.000000
vt 0.156513 0.911065
vt -0.182940 0.099086
vt 0.156513 0.099086
vt -0.182940 0.911065
vt 0.601243 0.099086
vt 0.283014 0.911065
vt 0.283014 0.099086
vt 0.601243 0.911065
vt -0.182940 0.601243
vt 0.156513 0.283014
vt 0.156513 0.601243
vt -0.182940 0.283014
vt -0.601243 0.911065
vt -0.283014 0.099086
vt -0.283014 0.911065
vt -0.601243 0.099086
vt 0.182940 0.283014
vt -0.156513 0.601243
vt -0.156513 0.283014
vt 0.182940 0.601243
f 1/1/1 2/2/2 3/3/3
f 2/2/2 1/1/1 4/4/4
f 5/5/5 6/6/6 7/7/7
f 6/6/6 5/5/5 8/8/8
f 9/9/9 10/10/10 11/11/11
f 10/10/10 9/9/9 12/12/12
f 13/13/13 14/14/14 15/15/15
f 14/14/14 13/13/13 16/16/16
f 17/17/17 18/18/18 19/19/19
f 18/18/18 17/17/17 20/20/20

g marssurvive_sp_Main-Charcoal
usemtl Charcoal
v 4.244767 21.834621 5.023569
v -4.383296 13.919346 5.023569
v 4.244767 13.919346 5.023569
v -4.383296 21.834621 5.023569
vn 0.000000 0.000000 1.000000
vn 0.000000 0.000000 1.000000
vn 0.000000 0.000000 1.000000
vn 0.000000 0.000000 1.000000
vt 0.348160 1.790897
vt -0.359522 1.141679
vt 0.348160 1.141679
vt -0.359522 1.790897
f 21/21/21 22/22/22 23/23/23
f 22/22/22 21/21/21 24/24/24

g marssurvive_sp_Main-Material1
usemtl Material1
v 3.831610 0.000000 -3.450506
v -3.763929 0.000000 2.813769
v -3.763929 0.000000 -3.450506
v 3.831610 0.000000 2.813769
v -3.763929 12.558713 -3.450506
v -3.763929 0.000000 2.813769
v -3.763929 12.558713 2.813769
v -3.763929 0.000000 -3.450506
v 3.831610 0.000000 -3.450506
v 3.831610 12.558713 2.813769
v 3.831610 0.000000 2.813769
v 3.831610 12.558713 -3.450506
v 5.543828 22.529800 5.023569
v -5.585496 22.529800 -6.519143
v -5.585496 22.529800 5.023569
v 5.543828 22.529800 -6.519143
v 5.543828 12.288838 -6.519143
v 5.543828 22.529800 5.023569
v 5.543828 12.288838 5.023569
v 5.543828 22.529800 -6.519143
v 3.831610 12.558713 2.813769
v -3.763929 0.000000 2.813769
v 3.831610 0.000000 2.813769
v -3.763929 12.558713 2.813769
v 5.543828 12.288838 5.023569
v 4.244767 13.919346 5.023569
v -5.585496 12.288838 5.023569
v 5.543828 22.529800 5.023569
v 4.244767 21.834621 5.023569
v -4.383296 21.834621 5.023569
v -4.383296 13.919346 5.023569
v -5.585496 22.529800 5.023569
v -5.585496 22.529800 -6.519143
v 5.543828 12.288838 -6.519143
v -5.585496 12.288838 -6.519143
v 5.543828 22.529800 -6.519143
v -3.763929 0.000000 -3.450506
v -1.908208 1.208057 -3.450506
v 3.831610 0.000000 -3.450506
v -3.763929 12.558713 -3.450506
v -1.908208 11.107707 -3.450506
v 2.230405 11.107707 -3.450506
v 2.230405 1.208057 -3.450506
v 3.831610 12.558713 -3.450506
v 5.543828 12.288838 -6.519143
v -5.585496 12.288838 5.023569
v -5.585496 12.288838 -6.519143
v 5.543828 12.288838 5.023569
v -5.585496 22.529800 -6.519143
v -5.585496 12.288838 5.023569
v -5.585496 22.529800 5.023569
v -5.585496 12.288838 -6.519143
vn 0.000000 -1.000000 -0.000000
vn 0.000000 -1.000000 -0.000000
vn 0.000000 -1.000000 -0.000000
vn 0.000000 -1.000000 -0.000000
vn -1.000000 0.000000 -0.000000
vn -1.000000 0.000000 -0.000000
vn -1.000000 0.000000 -0.000000
vn -1.000000 0.000000 -0.000000
vn 1.000000 -0.000000 0.000000
vn 1.000000 -0.000000 0.000000
vn 1.000000 -0.000000 0.000000
vn 1.000000 -0.000000 0.000000
vn 0.000000 1.000000 -0.000000
vn 0.000000 1.000000 -0.000000
vn 0.000000 1.000000 -0.000000
vn 0.000000 1.000000 -0.000000
vn 1.000000 0.000000 -0.000000
vn 1.000000 0.000000 -0.000000
vn 1.000000 0.000000 -0.000000
vn 1.000000 0.000000 -0.000000
vn 0.000000 0.000000 1.000000
vn 0.000000 0.000000 1.000000
vn 0.000000 0.000000 1.000000
vn 0.000000 0.000000 1.000000
vn 0.000000 0.000000 1.000000
vn 0.000000 0.000000 1.000000
vn 0.000000 0.000000 1.000000
vn 0.000000 0.000000 1.000000
vn 0.000000 0.000000 1.000000
vn 0.000000 0.000000 1.000000
vn 0.000000 0.000000 1.000000
vn 0.000000 0.000000 1.000000
vn 0.000000 0.000000 -1.000000
vn 0.000000 0.000000 -1.000000
vn 0.000000 0.000000 -1.000000
vn 0.000000 0.000000 -1.000000
vn -0.000000 -0.000000 -1.000000
vn -0.000000 -0.000000 -1.000000
vn -0.000000 -0.000000 -1.000000
vn -0.000000 -0.000000 -1.000000
vn -0.000000 -0.000000 -1.000000
vn -0.000000 -0.000000 -1.000000
vn -0.000000 -0.000000 -1.000000
vn -0.000000 -0.000000 -1.000000
vn 0.000000 -1.000000 -0.000000
vn 0.000000 -1.000000 -0.000000
vn 0.000000 -1.000000 -0.000000
vn 0.000000 -1.000000 -0.000000
vn -1.000000 0.000000 -0.000000
vn -1.000000 0.000000 -0.000000
vn -1.000000 0.000000 -0.000000
vn -1.000000 0.000000 -0.000000
vt -0.314272 0.283014
vt 0.308721 -0.230788
vt 0.308721 0.283014
vt -0.314272 -0.230788
vt -0.283014 1.030078
vt 0.230788 0.000000
vt 0.230788 1.030078
vt -0.283014 0.000000
vt 0.283014 0.000000
vt -0.230788 1.030078
vt -0.230788 0.000000
vt 0.283014 1.030078
vt 0.454710 -0.412038
vt -0.458128 0.534707
vt -0.458128 -0.412038
vt 0.454710 0.534707
vt 0.534707 1.007943
vt -0.412038 1.847917
vt -0.412038 1.007943
vt 0.534707 1.847917
vt 0.314272 1.030078
vt -0.308721 0.000000
vt 0.314272 0.000000
vt -0.308721 1.030078
vt 0.454710 1.007943
vt 0.348160 1.141679
vt -0.458128 1.007943
vt 0.454710 1.847917
vt 0.348160 1.790897
vt -0.359522 1.790897
vt -0.359522 1.141679
vt -0.458128 1.847917
vt 0.458128 1.847917
vt -0.454710 1.007943
vt 0.458128 1.007943
vt -0.454710 1.847917
vt 0.308721 0.000000
vt 0.156513 0.099086
vt -0.314272 0.000000
vt 0.308721 1.030078
vt 0.156513 0.911065
vt -0.182940 0.911065
vt -0.182940 0.099086
vt -0.314272 1.030078
vt -0.454710 0.534707
vt 0.458128 -0.412038
vt 0.458128 0.534707
vt -0.454710 -0.412038
vt -0.534707 1.847917
vt 0.412038 1.007943
vt 0.412038 1.847917
vt -0.534707 1.007943
f 25/25/25 26/26/26 27/27/27
f 26/26/26 25/25/25 28/28/28
f 29/29/29 30/30/30 31/31/31
f 30/30/30 29/29/29 32/32/32
f 33/33/33 34/34/34 35/35/35
f 34/34/34 33/33/33 36/36/36
f 37/37/37 38/38/38 39/39/39
f 38/38/38 37/37/37 40/40/40
f 41/41/41 42/42/42 43/43/43
f 42/42/42 41/41/41 44/44/44
f 45/45/45 46/46/46 47/47/47
f 46/46/46 45/45/45 48/48/48
f 49/49/49 50/50/50 51/51/51
f 50/50/50 49/49/49 52/52/52
f 50/50/50 52/52/52 53/53/53
f 53/53/53 52/52/52 54/54/54
f 51/51/51 55/55/55 56/56/56
f 55/55/55 51/51/51 50/50/50
f 56/56/56 55/55/55 54/54/54
f 56/56/56 54/54/54 52/52/52
f 57/57/57 58/58/58 59/59/59
f 58/58/58 57/57/57 60/60/60
f 61/61/61 62/62/62 63/63/63
f 62/62/62 61/61/61 64/64/64
f 62/62/62 64/64/64 65/65/65
f 65/65/65 64/64/64 66/66/66
f 63/63/63 67/67/67 68/68/68
f 67/67/67 63/63/63 62/62/62
f 68/68/68 67/67/67 66/66/66
f 68/68/68 66/66/66 64/64/64
f 69/69/69 70/70/70 71/71/71
f 70/70/70 69/69/69 72/72/72
f 73/73/73 74/74/74 75/75/75
f 74/74/74 73/73/73 76/76/76

